#N canvas 425 44 1233 932 12;
#X obj 32 745 netsend -u -b;
#X msg 265 742 disconnect;
#X listbox 120 849 34 0 0 0 - - - 0;
#X obj 92 849 bng 19 250 50 0 empty empty empty 0 -10 0 12 #fcfcfc #000000 #000000;
#X obj 120 777 oscparse;
#X msg 377 803 connect localhost 7081;
#X obj 120 813 list split;
#X floatatom 187 777 5 0 0 0 - - - 0;
#X listbox 376 848 73 0 0 0 - - - 0;
#X obj 38 876 print rcvd;
#X text 124 873 Message received: OSC address;
#X text 379 873 OSC message arguments;
#X msg 377 773 connect 172.16.60.15 7081;
#X text 613 742 Audioserver via DNS resolution;
#X text 613 773 Audioserver via IP;
#X text 613 805 local machine (for development);
#X obj 32 707 r \$0-send-osc;
#X msg 377 741 connect audioserver.mrlab 7081;
#X text 26 15 Audioserver OSC protocol for Matrix control;
#X floatatom 33 99 5 0 0 0 - - - 0;
#X obj 91 98 hsl 162 19 -127 18 0 0 empty empty empty -2 -10 0 12 #fcfcfc #000000 #000000 0 1;
#X msg 273 99 list -11.2;
#X obj 33 136 oscformat /matrix/settings/flex_channel/1/gain;
#X obj 34 610 oscformat /matrix/settings/flex_channel/0/label;
#X msg 34 573 symbol RF\ Mic\ 1;
#X msg 192 573 symbol Manipulated;
#X obj 35 248 tgl 19 0 empty empty empty 0 -10 0 12 #fcfcfc #000000 #000000 0 1;
#X msg 71 248 list true;
#X msg 160 248 list false;
#X floatatom 37 407 5 0 0 0 - - - 0;
#X msg 101 407 list 384;
#X msg 250 407 list 385;
#X obj 35 287 oscformat /matrix/settings/flex_channel/0/mute;
#X obj 33 171 s \$0-send-osc;
#X obj 35 321 s \$0-send-osc;
#X obj 37 511 s \$0-send-osc, f 14;
#X text 170 406 slot1_in1;
#X text 321 407 slot1_in2;
#X obj 34 643 s \$0-send-osc;
#X text 28 69 flex_channel 1: set gain;
#X text 33 377 flex_channel 1: routing (flex input);
#X text 31 540 flex_channel 0: label (flex input);
#X obj 37 443 oscformat -f i /matrix/settings/flex_channel/1/source_routing;
#X text 48 479 Note: '-f i' forces to send integer OSC arguments.;
#X obj 437 572 bng 19 250 50 0 empty empty empty 0 -10 0 12 #fcfcfc #000000 #000000;
#X obj 437 606 oscformat /matrix/device_info/name;
#X text 433 544 device_info: query name;
#X obj 437 643 s \$0-send-osc;
#X obj 439 99 bng 19 250 50 0 empty empty empty 0 -10 0 12 #fcfcfc #000000 #000000;
#X obj 439 134 oscformat /matrix/settings/flex_channel/1/gain;
#X obj 438 287 oscformat /matrix/settings/flex_channel/0/mute;
#X obj 438 252 bng 19 250 50 0 empty empty empty 0 -10 0 12 #fcfcfc #000000 #000000;
#X text 435 68 flex_channel 1: query gain;
#X obj 439 172 s \$0-send-osc;
#X text 30 217 flex_channel 0: mute;
#X text 433 225 flex_channel 0: query mute state;
#X obj 438 324 s \$0-send-osc;
#X obj 439 412 bng 19 250 50 0 empty empty empty 0 -10 0 12 #fcfcfc #000000 #000000;
#X obj 439 485 s \$0-send-osc;
#X text 435 381 flex_channels 1-32: query all gains;
#X obj 439 447 oscformat /matrix/settings/flex_channel/*/gain;
#X obj 827 641 s \$0-send-osc;
#X obj 828 429 bng 19 250 50 0 empty empty empty 0 -10 0 12 #fcfcfc #000000 #000000;
#X obj 828 502 s \$0-send-osc;
#X obj 828 464 oscformat /matrixmgr/state;
#X text 826 401 audioserver: query matrix connection state;
#X text 823 542 audioserver: manually connect/disconnect to/from matrix;
#X msg 827 569 list connect;
#X obj 827 604 oscformat /matrixmgr/control;
#X msg 947 569 list disconnect;
#X obj 831 121 bng 19 250 50 0 empty empty empty 0 -10 0 12 #fcfcfc #000000 #000000;
#X obj 831 194 s \$0-send-osc;
#X obj 829 352 s \$0-send-osc;
#X text 827 241 matrix: reset sync stable flag for madi 1;
#X obj 829 304 oscformat -f i /matrixcmd/reset_sync_stable;
#X text 840 327 Note: '-f i' forces to send integer OSC arguments.;
#X msg 829 270 list 5;
#X obj 831 156 oscformat /matrixcmd/recall_snapshot_3;
#X text 829 74 matrix: send command to recall snapshot #4;
#X text 827 93 (recall_snapshot_3 as matrix counts from 0);
#X text 1066 20 2026-04-27 rumori;
#X connect 0 1 4 0;
#X connect 1 0 0 0;
#X connect 4 0 6 0;
#X connect 4 0 3 0;
#X connect 4 0 9 0;
#X connect 4 1 7 0;
#X connect 5 0 0 0;
#X connect 6 0 2 0;
#X connect 6 1 8 0;
#X connect 7 0 6 1;
#X connect 12 0 0 0;
#X connect 16 0 0 0;
#X connect 17 0 0 0;
#X connect 19 0 22 0;
#X connect 20 0 19 0;
#X connect 21 0 22 0;
#X connect 22 0 33 0;
#X connect 23 0 38 0;
#X connect 24 0 23 0;
#X connect 25 0 23 0;
#X connect 26 0 32 0;
#X connect 27 0 32 0;
#X connect 28 0 32 0;
#X connect 29 0 42 0;
#X connect 30 0 42 0;
#X connect 31 0 42 0;
#X connect 32 0 34 0;
#X connect 42 0 35 0;
#X connect 44 0 45 0;
#X connect 45 0 47 0;
#X connect 48 0 49 0;
#X connect 49 0 53 0;
#X connect 50 0 56 0;
#X connect 51 0 50 0;
#X connect 57 0 60 0;
#X connect 60 0 58 0;
#X connect 62 0 64 0;
#X connect 64 0 63 0;
#X connect 67 0 68 0;
#X connect 68 0 61 0;
#X connect 69 0 68 0;
#X connect 70 0 77 0;
#X connect 74 0 72 0;
#X connect 76 0 74 0;
#X connect 77 0 71 0;
