#N canvas 608 91 1267 932 12;
#X obj 32 745 netsend -u -b;
#X msg 265 742 disconnect;
#X listbox 120 849 34 0 0 0 - - - 0;
#X obj 92 849 bng 19 250 50 0 empty empty empty 0 -10 0 12 #fcfcfc #000000 #000000;
#X obj 120 777 oscparse;
#X msg 377 803 connect localhost 7081;
#X obj 120 813 list split;
#X floatatom 187 777 5 0 0 0 - - - 0;
#X listbox 376 848 73 0 0 0 - - - 0;
#X obj 38 876 print rcvd;
#X text 124 873 Message received: OSC address;
#X text 379 873 OSC message arguments;
#X msg 377 773 connect 172.16.60.15 7081;
#X text 613 742 Audioserver via DNS resolution;
#X text 613 773 Audioserver via IP;
#X text 613 805 local machine (for development);
#X obj 32 707 r \$0-send-osc;
#X msg 377 741 connect audioserver.mrlab 7081;
#X text 26 15 Audioserver OSC protocol for Matrix control;
#X floatatom 33 99 5 0 0 0 - - - 0;
#X obj 91 98 hsl 162 19 -127 18 0 0 empty empty empty -2 -10 0 12 #fcfcfc #000000 #000000 0 1;
#X msg 273 99 list -11.2;
#X msg 34 573 symbol RF\ Mic\ 1;
#X msg 192 573 symbol Manipulated;
#X obj 35 248 tgl 19 0 empty empty empty 0 -10 0 12 #fcfcfc #000000 #000000 0 1;
#X msg 71 248 list true;
#X msg 160 248 list false;
#X floatatom 37 407 5 0 0 0 - - - 0;
#X msg 101 407 list 384;
#X msg 250 407 list 385;
#X obj 33 171 s \$0-send-osc;
#X obj 35 321 s \$0-send-osc;
#X obj 37 511 s \$0-send-osc, f 14;
#X text 170 406 slot1_in1;
#X text 321 407 slot1_in2;
#X obj 34 643 s \$0-send-osc;
#X text 28 69 flex_channel 1: set gain;
#X text 33 377 flex_channel 1: routing (flex input);
#X text 31 540 flex_channel 0: label (flex input);
#X text 48 479 Note: '-f i' forces to send integer OSC arguments.;
#X obj 446 574 bng 19 250 50 0 empty empty empty 0 -10 0 12 #fcfcfc #000000 #000000;
#X text 442 546 device_info: query name;
#X obj 446 645 s \$0-send-osc;
#X obj 448 101 bng 19 250 50 0 empty empty empty 0 -10 0 12 #fcfcfc #000000 #000000;
#X obj 447 254 bng 19 250 50 0 empty empty empty 0 -10 0 12 #fcfcfc #000000 #000000;
#X text 444 70 flex_channel 1: query gain;
#X obj 448 174 s \$0-send-osc;
#X text 30 217 flex_channel 0: mute;
#X text 442 227 flex_channel 0: query mute state;
#X obj 447 326 s \$0-send-osc;
#X obj 448 414 bng 19 250 50 0 empty empty empty 0 -10 0 12 #fcfcfc #000000 #000000;
#X obj 448 487 s \$0-send-osc;
#X text 444 383 flex_channels 1-32: query all gains;
#X obj 863 643 s \$0-send-osc;
#X obj 864 414 bng 19 250 50 0 empty empty empty 0 -10 0 12 #fcfcfc #000000 #000000;
#X obj 864 487 s \$0-send-osc;
#X text 862 386 audioserver: query matrix connection state;
#X text 859 544 audioserver: manually connect/disconnect to/from matrix;
#X msg 863 571 list connect;
#X msg 983 571 list disconnect;
#X obj 867 106 bng 19 250 50 0 empty empty empty 0 -10 0 12 #fcfcfc #000000 #000000;
#X obj 867 179 s \$0-send-osc;
#X obj 865 337 s \$0-send-osc;
#X text 863 226 matrix: reset sync stable flag for madi 1;
#X text 876 312 Note: '-f i' forces to send integer OSC arguments.;
#X msg 865 255 list 5;
#X text 865 59 matrix: send command to recall snapshot #4;
#X text 863 78 (recall_snapshot_3 as matrix counts from 0);
#X obj 867 141 oscformat /matrix/cmd/recall_snapshot_3;
#X obj 865 289 oscformat -f i /matrix/cmd/reset_sync_stable;
#X obj 864 449 oscformat /matrix/mgr/state;
#X obj 863 606 oscformat /matrix/mgr/control;
#X obj 33 136 oscformat /matrix/state/settings/flex_channel/1/gain;
#X obj 35 287 oscformat /matrix/state/settings/flex_channel/0/mute;
#X obj 37 443 oscformat -f i /matrix/state/settings/flex_channel/1/source_routing;
#X obj 34 610 oscformat /matrix/state/settings/flex_channel/0/label;
#X obj 448 136 oscformat /matrix/state/settings/flex_channel/1/gain;
#X obj 447 289 oscformat /matrix/state/settings/flex_channel/0/mute;
#X obj 448 449 oscformat /matrix/state/settings/flex_channel/*/gain;
#X obj 446 608 oscformat /matrix/state/device_info/name;
#X text 1090 15 2026-05-05 rumori;
#X connect 0 1 4 0;
#X connect 1 0 0 0;
#X connect 4 0 6 0;
#X connect 4 0 3 0;
#X connect 4 0 9 0;
#X connect 4 1 7 0;
#X connect 5 0 0 0;
#X connect 6 0 2 0;
#X connect 6 1 8 0;
#X connect 7 0 6 1;
#X connect 12 0 0 0;
#X connect 16 0 0 0;
#X connect 17 0 0 0;
#X connect 19 0 72 0;
#X connect 20 0 19 0;
#X connect 21 0 72 0;
#X connect 22 0 75 0;
#X connect 23 0 75 0;
#X connect 24 0 73 0;
#X connect 25 0 73 0;
#X connect 26 0 73 0;
#X connect 27 0 74 0;
#X connect 28 0 74 0;
#X connect 29 0 74 0;
#X connect 40 0 79 0;
#X connect 43 0 76 0;
#X connect 44 0 77 0;
#X connect 50 0 78 0;
#X connect 54 0 70 0;
#X connect 58 0 71 0;
#X connect 59 0 71 0;
#X connect 60 0 68 0;
#X connect 65 0 69 0;
#X connect 68 0 61 0;
#X connect 69 0 62 0;
#X connect 70 0 55 0;
#X connect 71 0 53 0;
#X connect 72 0 30 0;
#X connect 73 0 31 0;
#X connect 74 0 32 0;
#X connect 75 0 35 0;
#X connect 76 0 46 0;
#X connect 77 0 49 0;
#X connect 78 0 51 0;
#X connect 79 0 42 0;
