#N canvas 711 25 956 823 12;
#X obj 34 671 netsend -u -b;
#X msg 267 668 disconnect;
#X listbox 122 775 34 0 0 0 - - - 0;
#X obj 94 775 bng 19 250 50 0 empty empty empty 0 -10 0 12 #fcfcfc #000000 #000000;
#X obj 122 703 oscparse;
#X msg 379 729 connect localhost 7081;
#X obj 30 93 bng 19 250 50 0 empty empty empty 0 -10 0 12 #fcfcfc #000000 #000000;
#X obj 122 739 list split;
#X floatatom 189 703 5 0 0 0 - - - 0;
#X listbox 379 776 73 0 0 0 - - - 0;
#X obj 30 226 bng 19 250 50 0 empty empty empty 0 -10 0 12 #fcfcfc #000000 #000000;
#X obj 485 92 bng 19 250 50 0 empty empty empty 0 -10 0 12 #fcfcfc #000000 #000000;
#X obj 485 124 oscformat /ping;
#X msg 524 92 list 1 2 3.4 hello;
#X msg 30 360 list reload;
#X msg 487 228 list launch;
#X msg 588 228 list quit;
#X obj 488 377 bng 19 250 50 0 empty empty empty 0 -10 0 12 #fcfcfc #000000 #000000;
#X obj 491 516 bng 19 250 50 0 empty empty empty 0 -10 0 12 #fcfcfc #000000 #000000;
#X obj 40 802 print rcvd;
#X msg 673 228 list kill;
#X text 126 799 Message received: OSC address;
#X text 381 799 OSC message arguments;
#X msg 379 699 connect 172.16.60.15 7081;
#X text 615 668 Audioserver via DNS resolution;
#X text 615 699 Audioserver via IP;
#X text 615 731 local machine (for development);
#X text 26 15 Audioserver OSC protocol for Config/App control;
#X obj 34 633 r \$0-send-osc;
#X obj 30 160 s \$0-send-osc;
#X obj 30 292 s \$0-send-osc;
#X obj 485 160 s \$0-send-osc;
#X obj 30 428 s \$0-send-osc;
#X obj 491 575 s \$0-send-osc;
#X obj 488 438 s \$0-send-osc;
#X obj 487 301 s \$0-send-osc;
#X obj 30 394 oscformat /config/reaper_music/control;
#X obj 488 405 oscformat /app/reaper_music/state;
#X obj 491 544 oscformat /app/reaper_music/exitcode;
#X obj 487 266 oscformat /app/reaper_music/control;
#X text 488 489 query the exit code of an app (after exit);
#X text 484 200 control an app (launch/quit/kill);
#X text 485 349 query the running state of an app;
#X text 27 332 trigger reloading a config;
#X text 26 67 query the list of available configs;
#X text 25 200 query the number of available configs;
#X text 482 50 ping audioserver;
#X text 480 68 replies with /pong and the arguments that were sent;
#X msg 379 667 connect audioserver.mrlab 7081;
#X text 782 19 2026-03-30 rumori;
#X obj 30 126 oscformat /configmgr/list;
#X obj 30 258 oscformat /configmgr/num;
#X obj 31 578 s \$0-send-osc;
#X text 29 466 trigger rescanning the config dir (reload all loaded plus newly added config files), f 51;
#X msg 31 510 list rescan;
#X obj 31 544 oscformat /configmgr/control;
#X connect 0 1 4 0;
#X connect 1 0 0 0;
#X connect 4 0 7 0;
#X connect 4 0 3 0;
#X connect 4 0 19 0;
#X connect 4 1 8 0;
#X connect 5 0 0 0;
#X connect 6 0 50 0;
#X connect 7 0 2 0;
#X connect 7 1 9 0;
#X connect 8 0 7 1;
#X connect 10 0 51 0;
#X connect 11 0 12 0;
#X connect 12 0 31 0;
#X connect 13 0 12 0;
#X connect 14 0 36 0;
#X connect 15 0 39 0;
#X connect 16 0 39 0;
#X connect 17 0 37 0;
#X connect 18 0 38 0;
#X connect 20 0 39 0;
#X connect 23 0 0 0;
#X connect 28 0 0 0;
#X connect 36 0 32 0;
#X connect 37 0 34 0;
#X connect 38 0 33 0;
#X connect 39 0 35 0;
#X connect 48 0 0 0;
#X connect 50 0 29 0;
#X connect 51 0 30 0;
#X connect 54 0 55 0;
#X connect 55 0 52 0;
